<svg width="14" height="20" viewBox="0 0 14 20" fill="none" xmlns="http://www.w3.org/2000/svg">
<path d="M7.00065 4.99992V7.49992L10.334 4.16658L7.00065 0.833252V3.33325C3.31732 3.33325 0.333984 6.31658 0.333984 9.99992C0.333984 11.3083 0.717318 12.5249 1.36732 13.5499L2.58398 12.3333C2.20898 11.6416 2.00065 10.8416 2.00065 9.99992C2.00065 7.24158 4.24232 4.99992 7.00065 4.99992ZM12.634 6.44992L11.4173 7.66658C11.784 8.36658 12.0007 9.15825 12.0007 9.99992C12.0007 12.7583 9.75898 14.9999 7.00065 14.9999V12.4999L3.66732 15.8333L7.00065 19.1666V16.6666C10.684 16.6666 13.6673 13.6833 13.6673 9.99992C13.6673 8.69158 13.284 7.47492 12.634 6.44992Z" fill="#2E4E5D"/>
</svg>
