<svg width="16" height="14" viewBox="0 0 16 14" fill="none" xmlns="http://www.w3.org/2000/svg">
<path d="M15.7746 8.37979C15.7746 6.61979 14.4272 5.19312 12.7183 5.07312C12.2714 2.77313 10.2798 1.04646 7.88732 1.04646C7.01315 1.04646 6.19812 1.28646 5.48826 1.69312L6.46761 2.68646C6.90798 2.49312 7.38122 2.37979 7.88732 2.37979C9.88545 2.37979 11.5023 4.01979 11.5023 6.04646V6.37979H12.4883C13.5793 6.37979 14.4601 7.27312 14.4601 8.37979C14.4601 9.03979 14.1446 9.61312 13.6648 9.97979L14.5915 10.9198C15.308 10.3065 15.7746 9.40646 15.7746 8.37979ZM2.89859 0.953125L1.97183 1.89312L3.79249 3.73979H3.51643C1.53803 3.95312 0 5.65312 0 7.71312C0 9.91979 1.76808 11.7131 3.94366 11.7131H11.6535L12.9681 13.0465L13.8948 12.1065L2.89859 0.953125ZM3.94366 10.3798C2.49108 10.3798 1.31455 9.18646 1.31455 7.71312C1.31455 6.23979 2.49108 5.04646 3.94366 5.04646H5.08075L10.339 10.3798H3.94366Z" fill="#2E4E5D"/>
</svg>
