<svg width="20" height="16" viewBox="0 0 20 16" fill="none" xmlns="http://www.w3.org/2000/svg">
<path d="M10.0007 2.97884C13.159 2.97884 15.9756 4.75384 17.3506 7.56217C16.859 8.57884 16.1673 9.45384 15.3423 10.1622L16.5173 11.3372C17.6756 10.3122 18.5923 9.02884 19.1673 7.56217C17.7256 3.90384 14.1673 1.31217 10.0007 1.31217C8.94232 1.31217 7.92565 1.47884 6.96732 1.78717L8.34232 3.16217C8.88398 3.05384 9.43398 2.97884 10.0007 2.97884ZM9.10898 3.92884L10.834 5.65384C11.309 5.86217 11.6923 6.24551 11.9007 6.72051L13.6257 8.44551C13.6923 8.16217 13.7423 7.86217 13.7423 7.55384C13.7506 5.48717 12.0673 3.81217 10.0007 3.81217C9.69232 3.81217 9.40065 3.85384 9.10898 3.92884ZM1.67565 1.20384L3.90898 3.43717C2.55065 4.50384 1.47565 5.92051 0.833984 7.56217C2.27565 11.2205 5.83398 13.8122 10.0007 13.8122C11.2673 13.8122 12.484 13.5705 13.6006 13.1288L16.4506 15.9788L17.6256 14.8038L2.85065 0.0205078L1.67565 1.20384ZM7.92565 7.45384L10.1006 9.62884C10.0673 9.63717 10.034 9.64551 10.0007 9.64551C8.85065 9.64551 7.91732 8.71217 7.91732 7.56217C7.91732 7.52051 7.92565 7.49551 7.92565 7.45384ZM5.09232 4.62051L6.55065 6.07884C6.35898 6.53717 6.25065 7.03717 6.25065 7.56217C6.25065 9.62884 7.93398 11.3122 10.0007 11.3122C10.5257 11.3122 11.0257 11.2038 11.4757 11.0122L12.2923 11.8288C11.559 12.0288 10.7923 12.1455 10.0007 12.1455C6.84232 12.1455 4.02565 10.3705 2.65065 7.56217C3.23398 6.37051 4.08398 5.38717 5.09232 4.62051Z" fill="#6D838E"/>
</svg>
