<svg width="16" height="16" viewBox="0 0 16 16" fill="none" xmlns="http://www.w3.org/2000/svg">
<path d="M7.99935 5.33366C6.52602 5.33366 5.33268 6.52699 5.33268 8.00033C5.33268 9.47366 6.52602 10.667 7.99935 10.667C9.47268 10.667 10.666 9.47366 10.666 8.00033C10.666 6.52699 9.47268 5.33366 7.99935 5.33366ZM13.9593 7.33366C13.6527 4.55366 11.446 2.34699 8.66602 2.04033V0.666992H7.33268V2.04033C4.55268 2.34699 2.34602 4.55366 2.03935 7.33366H0.666016V8.66699H2.03935C2.34602 11.447 4.55268 13.6537 7.33268 13.9603V15.3337H8.66602V13.9603C11.446 13.6537 13.6527 11.447 13.9593 8.66699H15.3327V7.33366H13.9593ZM7.99935 12.667C5.41935 12.667 3.33268 10.5803 3.33268 8.00033C3.33268 5.42033 5.41935 3.33366 7.99935 3.33366C10.5793 3.33366 12.666 5.42033 12.666 8.00033C12.666 10.5803 10.5793 12.667 7.99935 12.667Z" fill="#5A707A"/>
</svg>
