<svg width="39" height="38" viewBox="0 0 39 38" fill="none" xmlns="http://www.w3.org/2000/svg">
<g filter="url(#filter0_d_281_15374)">
<path d="M19.3593 30C27.842 30 34.7186 23.2843 34.7186 15C34.7186 6.71573 27.842 0 19.3593 0C10.8766 0 4 6.71573 4 15C4 23.2843 10.8766 30 19.3593 30Z" fill="#A4C6FF"/>
<path d="M34.7184 15.0856C34.7184 14.6647 34.7001 14.2481 34.6635 13.836C34.6532 13.7051 34.6395 13.5725 34.6241 13.4416C34.6241 13.4035 34.6241 13.3654 34.6103 13.3256C34.5949 13.1947 34.5778 13.0654 34.5589 12.9361C34.4333 12.0975 34.2336 11.2708 33.962 10.4651C33.8934 10.2612 33.8214 10.0591 33.7442 9.86018C33.5143 9.26569 33.2451 8.6861 32.9381 8.125L32.3756 9.16578L31.6313 10.5513C30.8132 12.0611 29.3828 13.3007 27.2561 14.3415C24.6252 15.6292 21.5123 16.3717 18.5092 17.0893L17.77 17.2666C16.511 17.5586 15.285 17.9706 14.11 18.4963C11.4174 19.731 9.94411 21.9949 10.1654 24.5521C10.2743 25.8824 10.8581 27.1349 11.817 28.0954C11.8513 28.1302 11.889 28.1633 11.925 28.1965C14.2761 29.4283 16.918 30.0488 19.5919 29.997C22.2658 29.9452 24.8799 29.223 27.178 27.9011C29.4761 26.5793 31.3794 24.7031 32.7012 22.4565C34.0231 20.2099 34.7182 17.67 34.7184 15.0856Z" fill="#80A9EE"/>
<path d="M4.00002 15.1767C3.99628 17.7379 4.64795 20.2579 5.89377 22.5L6.4283 21.4883L7.3107 19.8121C8.11843 18.276 9.53535 17.0147 11.6395 15.9557C14.2426 14.6472 17.3208 13.8918 20.2938 13.16L21.0302 12.9846C22.2764 12.687 23.4899 12.2679 24.6532 11.7334C27.3156 10.4687 28.775 8.16366 28.5527 5.56518C28.4508 4.29168 27.933 3.08614 27.0781 2.13202C24.7595 0.761942 22.117 0.0265696 19.4196 0.000706573C16.7222 -0.0251565 14.066 0.659413 11.7212 1.98478C9.37641 3.31014 7.42675 5.229 6.07052 7.54617C4.7143 9.86333 3.99991 12.4961 4.00002 15.1767ZM26.7947 4.58548C26.7438 4.43882 26.6843 4.29524 26.6165 4.15549C26.6843 4.29524 26.7438 4.43882 26.7947 4.58548Z" fill="#C0D7FE"/>
<path d="M28.9488 17.7303C25.9026 19.2107 22.5523 20.0048 19.3004 20.774L18.5588 20.9498C17.5417 21.1818 16.5509 21.5094 15.6008 21.9279C14.7364 22.3224 13.7268 23.0552 13.8375 24.3018C13.9239 25.2965 14.6241 25.9961 15.9742 26.437C16.9968 26.7715 18.0762 26.9166 19.1552 26.8647C20.4155 26.81 21.7691 26.5199 23.3043 25.9729C28.5252 24.0996 32.3527 20.784 34.6866 16.0908C34.7056 15.7791 34.7177 15.4641 34.7177 15.1475C34.7173 14.471 34.6693 13.7953 34.5742 13.125C33.3347 14.9817 31.4918 16.4969 28.9488 17.7303Z" fill="#7299DC"/>
<path d="M22.7679 3.57121C21.758 3.22933 20.6915 3.08162 19.6257 3.13599C18.3825 3.19018 17.0453 3.48823 15.5374 4.04539C10.1564 6.03352 6.2764 9.63384 4 14.7481C4 14.861 4 14.9739 4 15.0868C4.00008 15.895 4.06461 16.7019 4.19297 17.5C5.40717 15.4492 7.29762 13.7981 9.95143 12.4653C12.9622 10.9547 16.27 10.1419 19.4823 9.3578L20.2166 9.17829C21.2208 8.9408 22.199 8.60556 23.1368 8.17745C23.9907 7.77441 24.9897 7.02759 24.8804 5.7524C24.7933 4.73632 24.1034 4.02168 22.7679 3.57121Z" fill="#DDEAFF"/>
</g>
<defs>
<filter id="filter0_d_281_15374" x="0" y="0" width="38.7188" height="38" filterUnits="userSpaceOnUse" color-interpolation-filters="sRGB">
<feFlood flood-opacity="0" result="BackgroundImageFix"/>
<feColorMatrix in="SourceAlpha" type="matrix" values="0 0 0 0 0 0 0 0 0 0 0 0 0 0 0 0 0 0 127 0" result="hardAlpha"/>
<feOffset dy="4"/>
<feGaussianBlur stdDeviation="2"/>
<feComposite in2="hardAlpha" operator="out"/>
<feColorMatrix type="matrix" values="0 0 0 0 0 0 0 0 0 0 0 0 0 0 0 0 0 0 0.25 0"/>
<feBlend mode="normal" in2="BackgroundImageFix" result="effect1_dropShadow_281_15374"/>
<feBlend mode="normal" in="SourceGraphic" in2="effect1_dropShadow_281_15374" result="shape"/>
</filter>
</defs>
</svg>
