<svg width="31" height="30" viewBox="0 0 31 30" fill="none" xmlns="http://www.w3.org/2000/svg">
<path d="M15.3593 30C23.842 30 30.7186 23.2843 30.7186 15C30.7186 6.71573 23.842 0 15.3593 0C6.87658 0 0 6.71573 0 15C0 23.2843 6.87658 30 15.3593 30Z" fill="#A4C6FF"/>
<path d="M30.7184 15.0856C30.7184 14.6647 30.7001 14.2481 30.6635 13.836C30.6532 13.7051 30.6395 13.5725 30.6241 13.4416C30.6241 13.4035 30.6241 13.3654 30.6103 13.3256C30.5949 13.1947 30.5778 13.0654 30.5589 12.9361C30.4333 12.0975 30.2336 11.2708 29.962 10.4651C29.8934 10.2612 29.8214 10.0591 29.7442 9.86018C29.5143 9.26569 29.2451 8.6861 28.9381 8.125L28.3756 9.16578L27.6313 10.5513C26.8132 12.0611 25.3828 13.3007 23.2561 14.3415C20.6252 15.6292 17.5123 16.3717 14.5092 17.0893L13.77 17.2666C12.511 17.5586 11.285 17.9706 10.11 18.4963C7.41736 19.731 5.94411 21.9949 6.16535 24.5521C6.27428 25.8824 6.8581 27.1349 7.81697 28.0954C7.85128 28.1302 7.88901 28.1633 7.92502 28.1965C10.2761 29.4283 12.918 30.0488 15.5919 29.997C18.2658 29.9452 20.8799 29.223 23.178 27.9011C25.4761 26.5793 27.3794 24.7031 28.7012 22.4565C30.0231 20.2099 30.7182 17.67 30.7184 15.0856Z" fill="#80A9EE"/>
<path d="M1.59972e-05 15.1767C-0.00372277 17.7379 0.647946 20.2579 1.89377 22.5L2.4283 21.4883L3.3107 19.8121C4.11843 18.276 5.53535 17.0147 7.63952 15.9557C10.2426 14.6472 13.3208 13.8918 16.2938 13.16L17.0302 12.9846C18.2764 12.687 19.4899 12.2679 20.6532 11.7334C23.3156 10.4687 24.775 8.16366 24.5527 5.56518C24.4508 4.29168 23.933 3.08614 23.0781 2.13202C20.7595 0.761942 18.117 0.0265696 15.4196 0.000706573C12.7222 -0.0251565 10.066 0.659413 7.72118 1.98478C5.37641 3.31014 3.42675 5.229 2.07052 7.54617C0.714299 9.86333 -9.43518e-05 12.4961 1.59972e-05 15.1767ZM22.7947 4.58548C22.7438 4.43882 22.6843 4.29524 22.6165 4.15549C22.6843 4.29524 22.7438 4.43882 22.7947 4.58548Z" fill="#C0D7FE"/>
<path d="M24.9488 17.7303C21.9026 19.2107 18.5523 20.0048 15.3004 20.774L14.5588 20.9498C13.5417 21.1818 12.5509 21.5094 11.6008 21.9279C10.7364 22.3224 9.72681 23.0552 9.83746 24.3018C9.9239 25.2965 10.6241 25.9961 11.9742 26.437C12.9968 26.7715 14.0762 26.9166 15.1552 26.8647C16.4155 26.81 17.7691 26.5199 19.3043 25.9729C24.5252 24.0996 28.3527 20.784 30.6866 16.0908C30.7056 15.7791 30.7177 15.4641 30.7177 15.1475C30.7173 14.471 30.6693 13.7953 30.5742 13.125C29.3347 14.9817 27.4918 16.4969 24.9488 17.7303Z" fill="#7299DC"/>
<path d="M18.7679 3.57121C17.758 3.22933 16.6915 3.08162 15.6257 3.13599C14.3825 3.19018 13.0453 3.48823 11.5374 4.04539C6.15636 6.03352 2.2764 9.63384 0 14.7481C0 14.861 0 14.9739 0 15.0868C8.16216e-05 15.895 0.0646071 16.7019 0.192973 17.5C1.40717 15.4492 3.29762 13.7981 5.95143 12.4653C8.96215 10.9547 12.27 10.1419 15.4823 9.3578L16.2166 9.17829C17.2208 8.9408 18.199 8.60556 19.1368 8.17745C19.9907 7.77441 20.9897 7.02759 20.8804 5.7524C20.7933 4.73632 20.1034 4.02168 18.7679 3.57121Z" fill="#DDEAFF"/>
</svg>
