<svg width="16" height="16" viewBox="0 0 16 16" fill="none" xmlns="http://www.w3.org/2000/svg">
<path d="M11.3278 9.87907H10.6695L10.4361 9.65407C11.2528 8.70407 11.7445 7.47074 11.7445 6.12907C11.7445 3.1374 9.31947 0.712402 6.3278 0.712402C3.33613 0.712402 0.911133 3.1374 0.911133 6.12907C0.911133 9.12074 3.33613 11.5457 6.3278 11.5457C7.66947 11.5457 8.9028 11.0541 9.8528 10.2374L10.0778 10.4707V11.1291L14.2445 15.2874L15.4861 14.0457L11.3278 9.87907ZM6.3278 9.87907C4.2528 9.87907 2.5778 8.20407 2.5778 6.12907C2.5778 4.05407 4.2528 2.37907 6.3278 2.37907C8.4028 2.37907 10.0778 4.05407 10.0778 6.12907C10.0778 8.20407 8.4028 9.87907 6.3278 9.87907Z" fill="#9BAAC2"/>
</svg>
