<svg width="18" height="18" viewBox="0 0 18 18" fill="none" xmlns="http://www.w3.org/2000/svg">
<path d="M8.99935 0.666504C4.39935 0.666504 0.666016 4.39984 0.666016 8.99984C0.666016 13.5998 4.39935 17.3332 8.99935 17.3332C13.5993 17.3332 17.3327 13.5998 17.3327 8.99984C17.3327 4.39984 13.5993 0.666504 8.99935 0.666504ZM2.33268 8.99984C2.33268 8.4915 2.39935 7.9915 2.50768 7.5165L6.49102 11.4998V12.3332C6.49102 13.2498 7.24102 13.9998 8.15768 13.9998V15.6082C4.88268 15.1915 2.33268 12.3915 2.33268 8.99984ZM13.9077 13.4998C13.691 12.8248 13.0743 12.3332 12.3243 12.3332H11.491V9.83317C11.491 9.37484 11.116 8.99984 10.6577 8.99984H5.65768V7.33317H7.32435C7.78268 7.33317 8.15768 6.95817 8.15768 6.49984V4.83317H9.82435C10.741 4.83317 11.491 4.08317 11.491 3.1665V2.82484C13.9327 3.80817 15.666 6.20817 15.666 8.99984C15.666 10.7332 14.991 12.3165 13.9077 13.4998Z" fill="#2E4E5D"/>
</svg>
